Coordinates
version=1
nRows=7
nColumns=46
inDegrees=yes

Units are S.I. units (second, meters, Newtons, ...)
Angles are in degrees.

endheader
time	pelvis_tilt	pelvis_list	pelvis_rotation	pelvis_tx	pelvis_ty	pelvis_tz	bb_angle	bb_tx	bb_ty	bb_tz	hip_flexion_r	hip_adduction_r	hip_rotation_r	knee_angle_r	knee_angle_r_beta	ankle_angle_r	subtalar_angle_r	mtp_angle_r	crank_angle_r	hip_flexion_l	hip_adduction_l	hip_rotation_l	knee_angle_l	knee_angle_l_beta	ankle_angle_l	subtalar_angle_l	mtp_angle_l	crank_angle_l	lumbar_extension	lumbar_bending	lumbar_rotation	arm_flex_r	arm_add_r	arm_rot_r	elbow_flex_r	pro_sup_r	wrist_flex_r	wrist_dev_r	arm_flex_l	arm_add_l	arm_rot_l	elbow_flex_l	pro_sup_l	wrist_flex_l	wrist_dev_l
      0.00000000	    -23.99598692	     -0.17180073	      2.98688396	      0.11385815	      1.04117027	     -0.23389508	      0.00000000	      0.50000000	      0.00000000	      0.25000000	     57.57519001	     -6.59664506	     -0.89135361	     71.94510593	      1.25567898	     21.10487981	     -0.85748657	      0.00000000	      0.00000000	     84.63490175	     -5.93950957	     -2.00638959	     66.70875185	      1.16428736	      3.71964110	     -0.57057084	      0.00000000	      0.00000000	    -51.14962652	     -0.64511986	     -1.89508129	     89.65140703	     -9.62338264	     21.65109146	     48.99254517	     25.78120684	      0.00000000	      0.00000000	     89.64824836	     -6.65186027	     19.98958687	     52.20536352	     25.80986347	      0.00000000	      0.00000000
      0.00500000	    -24.00646892	     -0.13399594	      2.93355989	      0.11388360	      1.04117985	     -0.23382080	      0.00000000	      0.50000000	      0.00000000	      0.25000000	     57.59107789	     -6.57047991	     -0.82512629	     71.92893854	      1.25539680	     21.10969335	     -0.86938743	      0.00000000	      0.00000000	     84.64166470	     -5.98896369	     -2.05771855	     66.73589329	      1.16476107	      3.71714287	     -0.60925313	      0.00000000	      0.00000000	    -51.11484035	     -0.72466754	     -1.92941185	     89.65389488	     -9.50182720	     21.27066204	     47.94308759	     30.50828204	      0.00000000	      0.00000000	     89.65132592	     -6.64895336	     19.78362859	     51.21936175	     30.50141695	      0.00000000	      0.00000000
      0.01000000	    -24.01433717	     -0.13836144	      2.91859332	      0.11386851	      1.04118500	     -0.23374745	      0.00000000	      0.50000000	      0.00000000	      0.25000000	     57.60696424	     -6.54205710	     -0.80125387	     71.93737245	      1.25554400	     21.06766309	     -0.90906187	      0.00000000	      0.00000000	     84.64266802	     -6.01625083	     -2.07460304	     66.70686159	      1.16425437	      3.68520478	     -0.63109792	      0.00000000	      0.00000000	    -51.10683609	     -0.71782883	     -1.84661120	     89.65364454	     -9.60275722	     21.35108989	     47.88759733	     31.14141989	      0.00000000	      0.00000000	     89.65204603	     -6.64889309	     19.78384790	     51.09687236	     31.00148780	      0.00000000	      0.00000000
      0.01500000	    -24.16050209	     -0.24561940	      2.91348880	      0.11399538	      1.04058962	     -0.23403316	      0.00000000	      0.50000000	      0.00000000	      0.25000000	     57.76982998	     -6.53383307	     -0.89842736	     72.01028855	      1.25681663	     21.20548568	     -0.64707413	      0.00000000	      0.00000000	     84.89569498	     -6.02063522	     -1.92802907	     66.87784191	      1.16723854	      3.83286184	     -0.47287756	      0.00000000	      0.00000000	    -50.88629730	     -0.60576378	     -1.81343733	     89.65135138	     -9.42606950	     21.02076388	     47.49278125	     32.80750026	      0.00000000	      0.00000000	     89.64214565	     -6.65577418	     19.58010863	     50.85044561	     32.69496965	      0.00000000	      0.00000000
      0.02000000	    -24.20105344	     -0.29223297	      2.89346147	      0.11383706	      1.04074606	     -0.23411064	      0.00000000	      0.50000000	      0.00000000	      0.25000000	     57.80379356	     -6.49655849	     -0.93199198	     71.96913423	      1.25609835	     21.16590141	     -0.64990527	      0.00000000	      0.00000000	     84.96075764	     -6.02708641	     -1.82040706	     66.90689892	      1.16774568	      3.83588660	     -0.48998484	      0.00000000	      0.00000000	    -50.84402622	     -0.58420846	     -1.75608724	     89.65006671	     -9.47052742	     20.93994646	     47.44613191	     33.42087658	      0.00000000	      0.00000000	     89.64217738	     -6.56009647	     19.46730450	     50.65424436	     33.27899802	      0.00000000	      0.00000000
      0.02500000	    -24.19637533	     -0.26613636	      2.83831168	      0.11382928	      1.04083490	     -0.23402220	      0.00000000	      0.50000000	      0.00000000	      0.25000000	     57.80708982	     -6.45447497	     -0.87640949	     71.95872463	      1.25591667	     21.09871865	     -0.77364709	      0.00000000	      0.00000000	     84.93961322	     -6.07840605	     -1.86925822	     66.88939708	      1.16744021	      3.79424935	     -0.57832062	      0.00000000	      0.00000000	    -50.85460835	     -0.66704713	     -1.73005399	     89.64947173	     -9.73095482	     21.87435585	     48.61748205	     27.03081091	      0.00000000	      0.00000000	     89.64205985	     -6.59684636	     20.13011340	     51.98390351	     25.73676720	      0.00000000	      0.00000000
      0.03000000	    -24.14521983	     -0.28835208	      2.84103619	      0.11384523	      1.04095627	     -0.23403496	      0.00000000	      0.50000000	      0.00000000	      0.25000000	     57.73288751	     -6.44289981	     -0.90687958	     71.93860100	      1.25556545	     21.15671857	     -0.71879432	      0.00000000	      0.00000000	     84.89017097	     -6.08708782	     -1.85043714	     66.89694825	      1.16757201	      3.83328950	     -0.55275925	      0.00000000	      0.00000000	    -50.94949161	     -0.64022976	     -1.69419427	     89.65081338	     -9.71528058	     21.61903743	     48.60561303	     27.78728942	      0.00000000	      0.00000000	     89.64086363	     -6.55628277	     19.95385724	     52.01324279	     26.59644767	      0.00000000	      0.00000000
